<?xml version="1.0" standalone="no"?>
<!DOCTYPE svg PUBLIC "-//W3C//DTD SVG 20010904//EN"
 "http://www.w3.org/TR/2001/REC-SVG-20010904/DTD/svg10.dtd">
<svg version="1.0" xmlns="http://www.w3.org/2000/svg"
 width="1500.000000pt" height="1500.000000pt" viewBox="0 0 1500.000000 1500.000000"
 preserveAspectRatio="xMidYMid meet">

<g transform="translate(0.000000,1500.000000) scale(0.100000,-0.100000)"
fill="#000000" stroke="none">
<path d="M7350 14633 c-499 -26 -622 -37 -905 -79 -625 -92 -1277 -283 -1852
-540 -1602 -716 -2891 -2005 -3607 -3607 -319 -713 -526 -1513 -590 -2282 -39
-463 -40 -743 -6 -1195 127 -1643 841 -3219 1995 -4399 490 -501 1006 -901
1595 -1236 1457 -828 3159 -1114 4820 -810 1176 215 2290 733 3225 1500 336
275 713 653 990 990 1224 1491 1786 3393 1574 5320 -332 3020 -2573 5512
-5547 6170 -414 92 -796 140 -1311 165 -194 10 -256 10 -381 3z m755 -217
c1517 -140 2876 -726 4010 -1728 154 -136 476 -460 605 -608 745 -854 1258
-1839 1525 -2925 80 -327 125 -591 171 -1005 22 -198 28 -979 9 -1201 -112
-1299 -549 -2486 -1296 -3520 -46 -64 -88 -123 -94 -131 -27 -42 -205 -256
-329 -396 -254 -286 -619 -635 -861 -822 -53 -41 -106 -85 -117 -98 -12 -12
-25 -22 -29 -22 -4 0 -61 -39 -126 -86 -460 -337 -985 -624 -1533 -839 -578
-227 -1148 -367 -1790 -439 -277 -32 -456 -38 -858 -33 -470 6 -735 31 -1150
107 -1637 299 -3110 1181 -4161 2490 -873 1087 -1385 2381 -1503 3800 -17 204
-17 889 0 1075 87 964 306 1752 706 2555 724 1449 1917 2592 3395 3255 701
314 1516 519 2281 575 80 6 165 12 190 14 108 9 806 -4 955 -18z"/>
<path d="M7155 14279 c-1443 -73 -2835 -610 -3950 -1524 -243 -199 -539 -481
-749 -715 -639 -709 -1114 -1531 -1410 -2438 -444 -1360 -444 -2844 0 -4204
296 -907 771 -1729 1410 -2438 123 -137 411 -423 544 -542 793 -703 1769
-1223 2793 -1488 1257 -324 2583 -284 3809 116 885 289 1708 760 2398 1372
133 119 421 405 544 542 639 709 1114 1531 1410 2438 400 1226 440 2552 116
3809 -270 1047 -796 2022 -1526 2833 -210 234 -506 516 -749 715 -1298 1064
-2957 1609 -4640 1524z m690 -184 c264 -9 642 -55 944 -115 1287 -256 2450
-877 3382 -1809 1311 -1312 2006 -3088 1930 -4933 -19 -444 -69 -824 -162
-1228 -249 -1070 -741 -2030 -1473 -2870 -129 -149 -458 -477 -611 -611 -1474
-1285 -3392 -1848 -5333 -1564 -1248 183 -2429 732 -3387 1575 -858 755 -1519
1741 -1884 2813 -267 785 -375 1521 -350 2390 36 1224 434 2442 1137 3472 655
961 1554 1736 2597 2239 810 391 1724 617 2605 645 219 7 291 7 605 -4z"/>
<path d="M7115 13690 c-9 -15 15 -1583 25 -1593 12 -13 618 4 623 17 2 6 2 46
-1 90 l-4 78 -193 -4 -193 -4 -6 121 c-3 66 -9 386 -13 710 l-8 590 -112 3
c-72 2 -114 -1 -118 -8z"/>
<path d="M8125 13659 c-11 -17 -234 -1564 -227 -1571 11 -11 605 -99 613 -91
11 12 31 155 22 164 -4 4 -91 20 -193 34 -102 15 -186 29 -188 30 -1 1 43 310
98 686 55 376 99 693 98 704 -3 20 -11 22 -180 48 -21 3 -40 1 -43 -4z"/>
<path d="M6377 13595 c-153 -29 -282 -57 -287 -61 -9 -10 264 -1552 277 -1564
8 -8 593 97 605 108 7 8 -19 153 -30 164 -4 3 -90 -9 -191 -28 -102 -18 -185
-33 -187 -31 -1 1 -23 123 -49 270 -37 205 -45 271 -36 277 7 4 72 17 144 30
73 13 136 26 140 30 9 7 -12 150 -23 163 -4 5 -74 -4 -154 -18 -81 -15 -149
-26 -151 -24 -8 9 -87 480 -81 486 3 4 86 21 183 40 96 18 178 34 180 37 3 2
-1 42 -9 88 -11 70 -16 83 -33 85 -11 0 -145 -23 -298 -52z"/>
<path d="M5453 13376 c-40 -18 -75 -35 -79 -38 -3 -4 58 -239 136 -523 78
-284 140 -518 138 -520 -2 -1 -138 197 -302 442 -265 394 -301 444 -321 439
-36 -9 -135 -57 -135 -65 0 -5 50 -226 110 -492 61 -266 115 -501 119 -521 5
-21 8 -38 6 -38 -2 0 -125 197 -273 438 -149 240 -277 445 -285 456 -13 17
-17 17 -100 -20 -48 -20 -87 -42 -87 -47 0 -10 835 -1323 854 -1344 8 -8 29
-3 84 21 40 18 76 37 81 42 4 5 -48 252 -115 549 -68 297 -123 543 -121 546 1
4 135 -191 297 -432 162 -242 304 -451 315 -465 l20 -26 78 36 c63 28 77 39
73 53 -3 10 -91 353 -196 763 -105 410 -193 753 -196 763 -7 23 -17 21 -101
-17z"/>
<path d="M9536 12687 c-120 -303 -233 -584 -251 -622 -53 -118 -104 -144 -208
-109 -26 9 -53 14 -60 11 -7 -3 -26 -37 -41 -77 -33 -84 -39 -76 84 -121 108
-39 194 -48 254 -25 62 24 130 101 176 199 62 134 481 1199 477 1211 -5 12
-177 86 -199 86 -8 0 -103 -227 -232 -553z"/>
<path d="M10450 12821 c-123 -38 -218 -137 -370 -386 -343 -563 -353 -583
-354 -735 -1 -85 2 -101 27 -152 39 -80 135 -166 243 -220 85 -42 91 -43 183
-43 88 0 101 3 150 30 72 40 142 104 195 179 76 107 378 606 417 690 110 237
64 415 -143 552 -119 79 -256 113 -348 85z m206 -221 c23 -12 61 -41 83 -65
35 -38 41 -51 41 -90 0 -24 -8 -67 -19 -94 -20 -54 -399 -680 -461 -763 -81
-106 -150 -127 -250 -72 -29 16 -67 47 -83 69 -26 36 -28 46 -24 97 7 74 24
107 266 503 233 382 276 435 358 435 27 0 65 -9 89 -20z"/>
<path d="M3888 12559 c-43 -33 -78 -67 -78 -76 0 -8 34 -132 76 -275 41 -143
73 -262 71 -264 -2 -3 -113 56 -245 131 -132 74 -247 135 -254 135 -14 0 -161
-114 -166 -128 -1 -5 157 -98 351 -207 l354 -199 113 -395 c62 -218 117 -411
122 -429 5 -20 15 -32 23 -30 7 2 47 31 88 65 l76 62 -14 48 c-8 27 -48 158
-89 293 -41 134 -74 245 -73 246 1 0 121 -66 266 -148 146 -81 268 -148 273
-148 10 0 148 108 160 125 4 5 4 13 0 17 -4 4 -173 100 -377 214 -203 114
-371 208 -372 208 -1 1 -49 184 -105 406 -57 222 -108 405 -113 407 -6 1 -45
-24 -87 -58z"/>
<path d="M11018 11589 c-299 -309 -544 -567 -546 -573 -1 -6 29 -42 66 -79
l69 -69 354 366 c194 201 354 364 356 363 1 -2 -88 -232 -197 -512 -110 -281
-200 -515 -200 -520 0 -14 92 -105 106 -105 15 0 1094 1118 1094 1133 0 7 -29
42 -65 77 l-66 65 -147 -150 c-82 -83 -240 -244 -351 -360 -112 -115 -201
-205 -198 -200 11 21 387 1005 387 1012 0 10 -103 113 -112 113 -4 0 -251
-253 -550 -561z"/>
<path d="M7255 11830 c-693 -38 -1382 -242 -1975 -585 -110 -63 -430 -272
-430 -281 0 -4 33 9 85 34 59 29 218 78 336 103 139 30 437 33 539 6 150 -40
246 -103 331 -216 141 -186 198 -425 186 -786 -13 -396 -67 -682 -237 -1265
-279 -960 -291 -1003 -278 -1011 7 -5 15 -9 18 -9 3 0 41 87 84 193 162 393
382 860 542 1152 164 299 459 765 534 844 52 54 294 156 485 204 97 25 265 38
349 27 226 -28 309 -187 261 -495 -26 -169 -66 -311 -187 -668 -97 -287 -109
-330 -96 -343 12 -13 21 -2 68 83 166 301 337 570 564 888 144 202 194 264
236 290 68 43 300 103 467 120 112 12 315 -25 414 -76 114 -58 176 -203 150
-353 -23 -132 -150 -464 -394 -1031 -224 -521 -315 -837 -381 -1315 -61 -444
-61 -780 -1 -1205 36 -253 96 -450 200 -657 29 -58 69 -127 88 -152 l35 -46
21 53 c53 131 95 289 186 702 109 499 149 694 199 970 25 134 33 189 93 620
34 245 41 431 18 490 -32 84 -2 118 161 184 209 84 446 122 555 89 56 -16 113
-69 140 -130 21 -46 23 -68 23 -173 -1 -178 -27 -297 -147 -675 -36 -113 -72
-230 -80 -260 -8 -30 -29 -102 -45 -160 -36 -122 -95 -384 -117 -520 -19 -113
-31 -341 -21 -394 14 -72 75 -96 153 -60 49 24 147 123 197 202 123 191 229
428 384 862 31 88 42 107 66 119 23 10 37 11 67 2 84 -25 119 -120 99 -267
-10 -81 -106 -376 -175 -543 -167 -402 -433 -736 -690 -864 -72 -36 -192 -77
-226 -77 -14 0 -23 -16 -39 -72 -50 -175 -116 -372 -161 -482 -27 -66 -47
-122 -44 -124 9 -9 544 -10 629 -2 328 34 579 115 758 245 56 41 117 140 243
393 420 844 556 1788 395 2744 -83 494 -289 1053 -547 1488 -390 655 -907
1175 -1568 1576 -173 104 -493 258 -710 340 -553 208 -1208 308 -1810 274z
m3611 -2030 c55 -24 121 -84 146 -133 39 -78 28 -199 -31 -322 -46 -97 -99
-168 -221 -300 -104 -111 -150 -177 -174 -248 -19 -58 -20 -84 -1 -117 17 -29
19 -74 5 -99 -15 -28 -69 -46 -140 -46 -53 1 -77 7 -133 35 -131 65 -225 190
-252 336 -29 151 -12 272 59 419 97 198 260 365 439 451 121 57 213 65 303 24z"/>
<path d="M2734 11478 c-33 -40 -64 -78 -67 -85 -4 -7 186 -269 459 -635 256
-343 475 -634 486 -647 l21 -25 43 47 c24 26 57 65 73 86 l31 39 -124 157
-124 158 95 113 c52 63 98 114 102 114 3 0 80 -45 171 -99 189 -114 163 -114
257 1 33 41 52 73 47 78 -17 16 -1383 770 -1396 770 -8 0 -41 -33 -74 -72z
m829 -577 c6 -7 -125 -172 -142 -179 -4 -1 -28 24 -52 55 -25 32 -115 146
-201 254 l-156 196 272 -160 c149 -88 274 -163 279 -166z"/>
<path d="M11813 10732 c-343 -241 -630 -444 -638 -452 -14 -14 2 -42 157 -273
95 -141 176 -257 180 -257 9 0 138 90 138 97 0 3 -45 72 -100 154 -55 82 -103
155 -106 162 -4 12 38 44 377 280 l66 46 88 -129 c99 -145 84 -139 177 -73 26
19 48 39 48 44 0 5 -36 64 -81 130 -44 66 -79 124 -77 129 6 17 389 280 399
274 5 -3 55 -73 110 -155 54 -82 104 -149 109 -149 19 0 141 93 137 104 -15
36 -340 506 -350 505 -7 0 -292 -197 -634 -437z"/>
<path d="M5453 10721 c-126 -32 -310 -225 -531 -557 -253 -380 -624 -1059
-776 -1419 -213 -504 -346 -1117 -322 -1480 8 -113 38 -295 60 -370 8 -27 13
-51 11 -53 -12 -13 -80 14 -146 57 -104 69 -241 194 -486 445 l-213 217 0
-218 c0 -700 172 -1390 504 -2028 211 -405 455 -735 801 -1081 374 -374 716
-620 1180 -849 519 -255 1040 -399 1622 -446 180 -15 693 -6 853 14 731 94
1352 320 1952 714 160 105 399 289 503 387 20 19 20 19 -5 13 -122 -27 -172
-32 -365 -31 -174 1 -239 6 -380 28 -93 14 -192 32 -220 39 l-50 12 -103 -92
c-126 -113 -250 -197 -397 -268 -200 -97 -342 -128 -580 -128 -182 0 -283 12
-405 49 -248 76 -439 231 -584 474 -107 181 -139 317 -140 595 0 175 2 196 24
265 39 120 131 239 220 285 136 70 348 57 528 -34 103 -52 372 -154 571 -217
49 -16 48 -13 -15 56 -134 147 -279 462 -359 780 -73 293 -95 511 -95 930 0
501 29 811 121 1295 47 246 148 701 178 804 6 19 9 36 8 38 -12 11 -279 -384
-376 -554 -211 -373 -428 -962 -535 -1453 -66 -306 -113 -655 -101 -755 8 -62
4 -66 -92 -100 -90 -31 -177 -39 -281 -26 -249 32 -389 212 -431 556 -24 192
-24 369 -2 580 29 280 141 883 280 1511 68 310 80 364 76 364 -3 0 -38 -64
-248 -460 -194 -365 -421 -832 -595 -1220 -300 -669 -483 -1217 -547 -1634
-13 -79 -16 -146 -12 -240 4 -119 8 -142 46 -259 23 -70 39 -132 35 -138 -16
-26 -122 -62 -217 -72 -141 -16 -234 0 -357 58 -165 80 -276 216 -344 419 -60
180 -71 280 -70 631 0 353 16 549 75 905 61 375 169 864 269 1225 11 39 40
147 66 240 112 412 272 937 434 1430 137 414 165 547 141 662 -18 84 -37 105
-97 109 -27 2 -63 -1 -81 -5z"/>
<path d="M2089 10578 c-27 -55 -49 -103 -47 -108 2 -4 212 -182 468 -395 256
-213 472 -394 480 -402 13 -13 13 -13 0 -9 -32 12 -1175 316 -1187 316 -7 0
-35 -45 -63 -100 l-50 -100 23 -14 c42 -27 1351 -736 1359 -736 8 0 88 152 88
167 0 5 -205 118 -454 253 -250 134 -454 246 -452 247 1 1 231 -56 511 -127
281 -71 512 -130 515 -130 8 0 60 108 59 123 0 6 -169 156 -375 332 -206 176
-389 333 -407 348 -18 16 172 -74 430 -203 255 -126 467 -230 473 -230 8 0 90
149 90 165 0 6 -275 144 -928 466 l-482 238 -51 -101z"/>
<path d="M12795 10189 c-70 -11 -206 -81 -257 -132 -65 -65 -89 -120 -168
-372 -40 -126 -83 -254 -97 -284 -49 -104 -146 -171 -244 -171 -47 0 -55 3
-89 39 -69 72 -73 163 -11 248 29 41 105 102 154 124 15 7 27 17 27 23 0 16
-121 166 -134 166 -6 0 -39 -18 -72 -40 -172 -112 -252 -284 -210 -447 64
-252 257 -380 473 -314 38 11 96 38 128 59 133 85 199 203 296 522 34 113 70
221 79 240 39 76 122 130 200 130 32 0 48 -7 79 -35 50 -45 71 -91 71 -152 0
-70 -41 -119 -170 -204 l-25 -16 43 -54 c69 -88 79 -99 95 -99 21 0 125 79
169 128 56 62 80 118 86 194 6 81 -8 138 -54 232 -81 164 -212 241 -369 215z"/>
<path d="M1836 8413 c-73 -462 -92 -923 -55 -1368 105 -1299 629 -2490 1515
-3450 158 -170 146 -162 180 -128 16 16 42 38 59 50 l29 21 -101 103 c-572
590 -1018 1338 -1282 2153 -111 341 -205 794 -236 1141 -4 39 -9 81 -12 95
-10 47 -12 795 -2 895 22 240 67 576 85 638 5 15 -3 17 -74 17 l-79 0 -27
-167z"/>
<path d="M13001 8478 c26 -138 56 -372 70 -543 15 -181 15 -689 0 -875 -84
-1019 -434 -1980 -1019 -2801 -156 -218 -293 -384 -499 -606 l-102 -109 52
-38 c28 -21 56 -40 62 -43 14 -5 141 127 284 293 693 805 1146 1777 1315 2824
100 616 100 1223 1 1838 -14 84 -25 155 -25 157 0 3 -35 5 -79 5 l-78 0 18
-102z"/>
<path d="M7690 4741 c0 -57 36 -188 71 -257 39 -78 132 -180 200 -221 110 -66
310 -93 430 -57 81 24 249 114 249 133 0 3 -28 16 -62 28 -120 42 -484 194
-603 253 -66 32 -157 81 -202 108 l-83 50 0 -37z"/>
<path d="M9909 3161 l-76 -36 199 -449 c109 -247 197 -450 195 -452 -2 -2
-180 161 -395 361 -216 201 -395 365 -398 365 -4 0 -33 -12 -66 -27 -43 -19
-58 -31 -55 -42 3 -9 131 -299 284 -646 154 -346 289 -651 301 -677 l21 -48
73 31 c40 17 76 34 80 38 4 4 -85 215 -198 470 -113 255 -204 464 -202 466 2
2 185 -167 406 -376 222 -208 405 -379 407 -379 13 0 115 52 115 58 0 12 -599
1365 -608 1373 -4 4 -41 -9 -83 -30z"/>
<path d="M5131 3138 c-10 -24 -139 -322 -286 -663 -147 -341 -274 -634 -281
-651 l-13 -31 177 -76 c218 -92 266 -107 357 -107 95 0 174 38 245 117 64 73
101 145 254 500 139 323 156 377 156 485 0 138 -69 232 -230 313 -71 35 -344
155 -354 155 -4 0 -15 -19 -25 -42z m253 -222 c158 -70 189 -147 127 -313 -35
-96 -248 -587 -290 -671 -61 -120 -122 -168 -202 -159 -57 7 -209 66 -209 81
0 6 106 257 236 558 223 516 237 546 258 538 11 -4 48 -20 80 -34z"/>
<path d="M6076 2756 c-77 -310 -337 -1408 -334 -1411 11 -11 561 -136 568
-128 6 7 41 132 36 133 0 1 -81 20 -179 44 -97 24 -180 46 -183 49 -5 5 114
524 122 536 2 1 65 -11 141 -29 76 -18 142 -33 147 -34 7 -1 49 135 43 140 -1
1 -65 16 -142 34 -77 18 -143 36 -147 39 -5 5 59 289 102 452 l10 36 182 -43
c99 -25 182 -43 183 -42 5 7 33 143 30 147 -2 2 -130 33 -284 70 l-279 68 -16
-61z"/>
<path d="M8712 2755 c-78 -17 -162 -55 -212 -95 -81 -64 -119 -201 -100 -359
14 -111 145 -685 177 -776 52 -144 137 -247 230 -279 60 -20 174 -20 243 0
104 31 156 82 191 188 l16 50 27 -81 27 -81 62 14 c33 8 62 16 64 18 3 3 -158
718 -163 725 -3 3 -365 -76 -370 -82 -1 -1 5 -32 13 -69 17 -78 13 -76 125
-49 l78 18 11 -40 c22 -83 39 -191 39 -251 0 -118 -62 -189 -179 -203 -64 -7
-93 1 -134 37 -57 50 -83 129 -173 518 -92 397 -103 488 -71 549 32 59 103 93
198 93 94 0 134 -46 174 -195 11 -44 24 -82 28 -84 11 -6 187 32 187 40 0 20
-53 186 -71 222 -35 69 -88 126 -142 154 -64 32 -181 40 -275 18z"/>
<path d="M7064 2630 c-109 -23 -199 -96 -235 -189 -46 -123 -33 -294 30 -389
15 -23 109 -127 208 -232 213 -223 238 -263 237 -375 0 -78 -27 -145 -66 -166
-63 -34 -153 -28 -209 12 -42 30 -78 112 -90 212 -7 51 -16 87 -23 87 -6 0
-48 -7 -94 -16 l-83 -17 6 -66 c19 -194 97 -319 234 -372 44 -18 78 -22 161
-23 94 -1 111 2 161 25 129 61 190 158 197 316 5 113 -18 198 -78 291 -22 35
-120 147 -218 250 -201 211 -218 238 -210 342 7 100 63 152 166 153 122 1 192
-83 192 -230 0 -65 -4 -64 158 -28 19 5 22 12 22 48 0 62 -27 163 -57 219 -33
60 -85 103 -157 128 -63 23 -193 33 -252 20z"/>
<path d="M7927 2620 c-48 -4 -89 -9 -92 -11 -4 -5 102 -1500 108 -1505 1 -1
46 0 100 3 l97 6 0 40 c0 34 -95 1378 -102 1446 -4 30 -2 30 -111 21z"/>
</g>
</svg>
